<?xml version="1.0" encoding="utf-8"?>
<!-- Generator: Adobe Illustrator 19.0.0, SVG Export Plug-In . SVG Version: 6.00 Build 0)  -->
<svg version="1.1" id="Layer_1" xmlns="http://www.w3.org/2000/svg" xmlns:xlink="http://www.w3.org/1999/xlink" x="0px" y="0px"
	 viewBox="0 0 1920 1080" style="enable-background:new 0 0 1920 1080;" xml:space="preserve">
<style type="text/css">
	.st0{fill:url(#XMLID_10_);stroke:#150A00;stroke-miterlimit:10;}
	.st1{fill:url(#XMLID_11_);stroke:#150A00;stroke-miterlimit:10;}
	.st2{fill:url(#XMLID_12_);stroke:url(#XMLID_13_);stroke-miterlimit:10;}
	.st3{fill:url(#XMLID_14_);stroke:url(#XMLID_15_);stroke-miterlimit:10;}
	.st4{fill:url(#XMLID_16_);stroke:url(#XMLID_17_);stroke-miterlimit:10;}
	.st5{fill:url(#XMLID_18_);stroke:url(#XMLID_19_);stroke-miterlimit:10;}
	.st6{fill:url(#XMLID_20_);stroke:url(#XMLID_21_);stroke-miterlimit:10;}
</style>
<linearGradient id="XMLID_10_" gradientUnits="userSpaceOnUse" x1="-4.6997" y1="-54.6134" x2="1907.7047" y2="1127.3275">
	<stop  offset="5.102041e-003" style="stop-color:#102855"/>
	<stop  offset="0.2092" style="stop-color:#000000"/>
	<stop  offset="0.4235" style="stop-color:#F5B807"/>
	<stop  offset="0.8673" style="stop-color:#000000"/>
	<stop  offset="1" style="stop-color:#100947"/>
	<stop  offset="1" style="stop-color:#04134B"/>
	<stop  offset="1" style="stop-color:#222E5D"/>
	<stop  offset="1" style="stop-color:#465074"/>
	<stop  offset="1" style="stop-color:#666D88"/>
	<stop  offset="1" style="stop-color:#828698"/>
	<stop  offset="1" style="stop-color:#989BA6"/>
	<stop  offset="1" style="stop-color:#A9AAB0"/>
	<stop  offset="1" style="stop-color:#B4B5B8"/>
	<stop  offset="1" style="stop-color:#BBBBBC"/>
	<stop  offset="1" style="stop-color:#BDBDBD"/>
</linearGradient>
<rect id="XMLID_8_" x="-5.9" y="-1.4" class="st0" width="1924.4" height="1081.4"/>
<linearGradient id="XMLID_11_" gradientUnits="userSpaceOnUse" x1="-1.478" y1="393.6848" x2="1921.478" y2="393.6848">
	<stop  offset="0" style="stop-color:#000000"/>
	<stop  offset="0" style="stop-color:#000000"/>
	<stop  offset="0.1735" style="stop-color:#F5B807"/>
	<stop  offset="1" style="stop-color:#04134B"/>
	<stop  offset="1" style="stop-color:#2D1157"/>
	<stop  offset="1" style="stop-color:#560F63"/>
	<stop  offset="1" style="stop-color:#7C0D6E"/>
	<stop  offset="1" style="stop-color:#9C0B78"/>
	<stop  offset="1" style="stop-color:#B80A80"/>
	<stop  offset="1" style="stop-color:#CE0986"/>
	<stop  offset="1" style="stop-color:#DF088B"/>
	<stop  offset="1" style="stop-color:#EA078E"/>
	<stop  offset="1" style="stop-color:#F10790"/>
	<stop  offset="1" style="stop-color:#F30791"/>
	<stop  offset="1" style="stop-color:#BDBDBD"/>
</linearGradient>
<path id="XMLID_1_" class="st1" d="M1.2,723.1c147.1,51.2,365.3,113,540.1,22.5c127.9-66.2,224.4-264.3,337.5-292.5
	c192.7-48,360.5,155,595.5,120c160.9-24,256.5-75,446.9-198c0,0,0,0,0,0c1-168.5-1-211,0-379.5c0,0-1916.9,4.5-1916.9,4.5
	C-6.2,231.1,0.7,493.6,1.2,723.1z"/>
<linearGradient id="XMLID_12_" gradientUnits="userSpaceOnUse" x1="497.0443" y1="-75.6648" x2="1350.5017" y2="1010.2809">
	<stop  offset="0" style="stop-color:#000000"/>
	<stop  offset="0" style="stop-color:#000000"/>
	<stop  offset="0" style="stop-color:#F5B807"/>
	<stop  offset="0.9902" style="stop-color:#F30791"/>
	<stop  offset="0.9949" style="stop-color:#FFFDF6"/>
	<stop  offset="0.9949" style="stop-color:#FFFDF6"/>
	<stop  offset="0.9963" style="stop-color:#FFFFFD"/>
	<stop  offset="1" style="stop-color:#FFFFFF"/>
</linearGradient>
<linearGradient id="XMLID_13_" gradientUnits="userSpaceOnUse" x1="-6.3693" y1="333.5472" x2="1617.0074" y2="333.5472">
	<stop  offset="0.3674" style="stop-color:#FFFFFF"/>
	<stop  offset="0.4694" style="stop-color:#F5B807"/>
	<stop  offset="0.8673" style="stop-color:#000000"/>
</linearGradient>
<path id="XMLID_3_" class="st2" d="M-1.5,642c248.5,78,415.9-14.6,479.3-91.9c65.4-79.9,46.5-93.6,144.7-207.9
	c159.4-185.6,463.3-84.5,519.9-73.8c71.5,13.4,36.3,6.5,88.9,13.6c205.4,27.5,400.6-141.1,384.3-286.3c-540.5,1-1080.9,2-1621.4,3
	C-2.8,186.5-4.5,454.1-1.5,642z"/>
<linearGradient id="XMLID_14_" gradientUnits="userSpaceOnUse" x1="294.9914" y1="-180.6923" x2="536.4793" y2="347.2813">
	<stop  offset="0" style="stop-color:#000000"/>
	<stop  offset="0" style="stop-color:#000000"/>
	<stop  offset="0" style="stop-color:#F5B807"/>
	<stop  offset="0.9643" style="stop-color:#F30791"/>
	<stop  offset="0.9949" style="stop-color:#FFFDF6"/>
	<stop  offset="1" style="stop-color:#FFFFFF"/>
</linearGradient>
<linearGradient id="XMLID_15_" gradientUnits="userSpaceOnUse" x1="-1.8658" y1="174.5446" x2="914.6219" y2="174.5446">
	<stop  offset="0.3674" style="stop-color:#FFFFFF"/>
	<stop  offset="0.4694" style="stop-color:#F5B807"/>
	<stop  offset="0.8673" style="stop-color:#000000"/>
</linearGradient>
<path id="XMLID_4_" class="st3" d="M1.6,348.1c138-166.5,231.6-175.3,351-133.5c9.3,3.3,25.6,15.2,55.5,28.5
	c52.8,23.5,98.9,44.1,157.5,42c62.3-2.2,109.2-29,142.5-48c37.5-21.4,60.8-43.1,66-48c25.9-24.4,38.7-43.6,63-81
	c17.2-26.5,42.5-63.4,76.5-106.5c-305-0.5-610-1-915-1.5C-0.4,116.1,0.6,232.1,1.6,348.1z"/>
<linearGradient id="XMLID_16_" gradientUnits="userSpaceOnUse" x1="1247.8625" y1="618.5299" x2="1832.8333" y2="1458.4879">
	<stop  offset="0" style="stop-color:#000000"/>
	<stop  offset="0" style="stop-color:#000000"/>
	<stop  offset="0" style="stop-color:#F5B807"/>
	<stop  offset="0.9871" style="stop-color:#F30791"/>
	<stop  offset="0.9949" style="stop-color:#FFFDF6"/>
	<stop  offset="1" style="stop-color:#FFFFFF"/>
</linearGradient>
<linearGradient id="XMLID_17_" gradientUnits="userSpaceOnUse" x1="1104.8986" y1="945.7057" x2="1919.047" y2="945.7057">
	<stop  offset="0.3674" style="stop-color:#FFFFFF"/>
	<stop  offset="0.4694" style="stop-color:#F5B807"/>
	<stop  offset="0.8673" style="stop-color:#000000"/>
</linearGradient>
<path id="XMLID_6_" class="st4" d="M1105.6,1081.6c55.1-172.7,121.6-219.4,171-231c81.4-19.1,125,54.8,238.5,39
	c97.6-13.6,116.1-75.2,199.5-79.5c73.7-3.8,142.2,40,202.5,102c0.5,56,1,112,1.5,168C1647.6,1080.6,1376.6,1081.1,1105.6,1081.6z"/>
<linearGradient id="XMLID_18_" gradientUnits="userSpaceOnUse" x1="71.4326" y1="203.1231" x2="495.9113" y2="1034.0815">
	<stop  offset="0" style="stop-color:#000000"/>
	<stop  offset="0" style="stop-color:#000000"/>
	<stop  offset="0" style="stop-color:#F5B807"/>
	<stop  offset="0.9889" style="stop-color:#F30791"/>
	<stop  offset="0.9949" style="stop-color:#FFFDF6"/>
	<stop  offset="1" style="stop-color:#FFFFFF"/>
</linearGradient>
<linearGradient id="XMLID_19_" gradientUnits="userSpaceOnUse" x1="-0.3726" y1="674.7642" x2="589.134" y2="674.7642">
	<stop  offset="0.3674" style="stop-color:#FFFFFF"/>
	<stop  offset="0.4694" style="stop-color:#F5B807"/>
	<stop  offset="0.8673" style="stop-color:#000000"/>
</linearGradient>
<path id="XMLID_7_" class="st5" d="M1.6,691.6c138.2,147.7,198.8,134.9,250.5,127.5c90.2-12.9,105.1-78.3,159-126
	c51.6-45.7,105.8,28,144,0c35.2-25.8,45.9-94.3,16.5-133.5c-32.8-43.7-102.2-33.2-133.5-28.5c-61.6,9.3-76.6,14.2-144,60
	c-37.5,25.5-90.3,28.4-156,18c-62.5-9.9-109.2-40.4-138-64.5C0.6,593.6,1.1,642.6,1.6,691.6z"/>
<linearGradient id="XMLID_20_" gradientUnits="userSpaceOnUse" x1="-5.478" y1="737.8771" x2="1534.7522" y2="737.8771">
	<stop  offset="0" style="stop-color:#000000"/>
	<stop  offset="0" style="stop-color:#000000"/>
	<stop  offset="0" style="stop-color:#F5B807"/>
	<stop  offset="0.9902" style="stop-color:#F30791"/>
	<stop  offset="0.9949" style="stop-color:#FFFDF6"/>
	<stop  offset="0.9949" style="stop-color:#FFFDF6"/>
	<stop  offset="0.9963" style="stop-color:#FFFFFD"/>
	<stop  offset="1" style="stop-color:#FFFFFF"/>
</linearGradient>
<linearGradient id="XMLID_21_" gradientUnits="userSpaceOnUse" x1="-5.9864" y1="738.1009" x2="1536.0195" y2="738.1009">
	<stop  offset="0.3674" style="stop-color:#FFFFFF"/>
	<stop  offset="0.4694" style="stop-color:#F5B807"/>
	<stop  offset="0.8673" style="stop-color:#000000"/>
</linearGradient>
<path id="XMLID_9_" class="st6" d="M-5.5,1037.6c0,0,93.1-63,303.1-42c0,0,135,7.5,249-72s114-79.5,114-79.5s172.5-213,238.5-246
	s66-33,66-33s82.5-15,208.5,60c0,0,129,81,186,67.5c57-13.5,150.9-110.7,175.2-139.4l-85.4,14.4c0,0-214.3,8-278.8-79
	c0,0-100.9-58.3-129-49.5c-28.1,8.8-157.8-15.7-209,24.2C781.4,503.3,692.7,602,655.5,639.6c-37.1,37.6-168.2,142.3-248.1,138.8
	l-90.5,5.3c0,0-128,66.9-212.5-5.2l-106.7-95L-5.5,1037.6z"/>
</svg>
